<svg width="24" height="24" viewBox="0 0 24 24" fill="none" xmlns="http://www.w3.org/2000/svg">
    <g id="360-degrees">
        <path id="Vector" d="M22 5C22 3.34315 16.9706 2 12 2C7.02944 2 2 3.34315 2 5M22 5V19C22 20.5 19 22 15 22V8C19 8 22 6.30622 22 5ZM2 5V19C2 20.5 6 22 9 22V8C5.5 8 2 6.30622 2 5Z" stroke="#2F80ED" stroke-width="1.5" stroke-linecap="round" stroke-linejoin="round"/>
    </g>
    <g id="bubble">
        <path id="Vector" d="M15.59 12.26C18.4232 12.26 20.72 9.96323 20.72 7.13C20.72 4.29678 18.4232 2 15.59 2C12.7568 2 10.46 4.29678 10.46 7.13C10.46 9.96323 12.7568 12.26 15.59 12.26Z" stroke="#2F80ED" stroke-width="1.5" stroke-miterlimit="10"/>
        <path id="Vector_2" d="M6.36026 19.4398C8.0613 19.4398 9.44028 18.0608 9.44028 16.3598C9.44028 14.6587 8.0613 13.2798 6.36026 13.2798C4.65922 13.2798 3.28027 14.6587 3.28027 16.3598C3.28027 18.0608 4.65922 19.4398 6.36026 19.4398Z" stroke="#2F80ED" stroke-width="1.5" stroke-miterlimit="10"/>
        <path id="Vector_3" d="M16.6196 21.9999C18.0334 21.9999 19.1796 20.8537 19.1796 19.4399C19.1796 18.026 18.0334 16.8799 16.6196 16.8799C15.2057 16.8799 14.0596 18.026 14.0596 19.4399C14.0596 20.8537 15.2057 21.9999 16.6196 21.9999Z" stroke="#2F80ED" stroke-width="1.5" stroke-miterlimit="10"/>
    </g>
    <g id="modules">
        <path d="M8 5H12" stroke="#2F80ED" stroke-width="1.5" stroke-linecap="round" stroke-linejoin="round"/>
        <path d="M5 12L5 16" stroke="#2F80ED" stroke-width="1.5" stroke-linecap="round" stroke-linejoin="round"/>
        <path d="M19 8L19 12" stroke="#2F80ED" stroke-width="1.5" stroke-linecap="round" stroke-linejoin="round"/>
        <path d="M12 19L16 19" stroke="#2F80ED" stroke-width="1.5" stroke-linecap="round" stroke-linejoin="round"/>
        <rect x="2" y="2" width="6" height="6" rx="3" stroke="#2F80ED" stroke-width="1.5" stroke-linecap="round" stroke-linejoin="round"/>
        <rect x="16" y="2" width="6" height="6" rx="3" stroke="#2F80ED" stroke-width="1.5" stroke-linecap="round" stroke-linejoin="round"/>
        <rect x="2" y="16" width="6" height="6" rx="3" stroke="#2F80ED" stroke-width="1.5" stroke-linecap="round" stroke-linejoin="round"/>
        <rect x="16" y="16" width="6" height="6" rx="3" stroke="#2F80ED" stroke-width="1.5" stroke-linecap="round" stroke-linejoin="round"/>
    </g>
    <g id="rocket">
        <path id="Icon" fill-rule="evenodd" clip-rule="evenodd" d="M16.5567 1.24995L16.6503 1.24996L17.1991 1.24996L17.2313 1.24996C18.0441 1.24996 18.6997 1.24995 19.2306 1.29333C19.7773 1.33799 20.2574 1.43235 20.7016 1.65869C21.4072 2.01821 21.9809 2.59189 22.3404 3.2975C22.5668 3.74172 22.6611 4.22186 22.7058 4.76849C22.7492 5.2994 22.7492 5.95501 22.7491 6.76784L22.7491 6.79996L22.7491 7.34914L22.7492 7.44267C22.7493 8.33148 22.7494 8.90427 22.6179 9.45201C22.5016 9.93666 22.3097 10.4 22.0493 10.825C21.7549 11.3053 21.3499 11.7102 20.7213 12.3386L20.7213 12.3386L20.6552 12.4048L19.3141 13.746L19.7319 15.8333L19.7536 15.9419C19.9173 16.758 20.0305 17.3224 19.9762 17.8785C19.9282 18.3693 19.784 18.8457 19.5517 19.2807C19.2885 19.7736 18.8814 20.1804 18.2926 20.7688L18.2143 20.8471L16.5311 22.5302C16.3752 22.6861 16.1586 22.7655 15.9389 22.7474C15.7192 22.7292 15.5186 22.6152 15.3904 22.4358L13.2936 19.5003C13.2325 19.5354 13.1711 19.5683 13.1091 19.599C11.7801 20.2576 10.2198 20.2577 8.89085 19.5991C8.19073 19.2522 7.56398 18.6251 6.58122 17.6419L6.46952 17.5301L6.35778 17.4184C5.37461 16.4358 4.7476 15.809 4.40067 15.109C3.74213 13.7801 3.7421 12.2198 4.40059 10.8909C4.43129 10.829 4.46417 10.7676 4.49931 10.7065L1.56455 8.61015C1.38515 8.48201 1.27122 8.28142 1.25304 8.06171C1.23486 7.842 1.31427 7.62541 1.47017 7.46952L3.15367 5.78607L3.23193 5.70778C3.8202 5.11909 4.22699 4.71202 4.71982 4.44881C5.15467 4.21656 5.63104 4.07233 6.12169 4.02438C6.67775 3.97003 7.24201 4.0831 8.05803 4.24662L8.16657 4.26836L10.253 4.68568L11.5943 3.34434L11.6604 3.27819C12.2888 2.64951 12.6938 2.24436 13.1741 1.94999C13.5991 1.68953 14.0625 1.49759 14.5472 1.38122C15.095 1.2497 15.6678 1.2498 16.5567 1.24995ZM6.46934 8.46965L8.97836 5.96044L7.87238 5.73923C6.90562 5.54586 6.57396 5.48732 6.2676 5.51726C5.97321 5.54603 5.68739 5.63257 5.42648 5.77192C5.15495 5.91694 4.91147 6.14961 4.21432 6.84674L3.15685 7.90418L5.4194 9.52035L5.97759 8.9621C6.09786 8.841 6.22447 8.71445 6.3576 8.58136L6.46934 8.46965ZM5.74464 11.5569C5.94487 11.1528 6.31124 10.7543 7.20413 9.85686L11.0304 6.03023C11.0361 6.0245 11.0417 6.0187 11.0472 6.01281L12.655 4.40496C13.372 3.68785 13.6475 3.41914 13.9579 3.22893C14.2487 3.05072 14.5657 2.91939 14.8974 2.83977C15.2513 2.75478 15.6361 2.74996 16.6503 2.74996L17.1991 2.74996C18.0516 2.74996 18.6458 2.75055 19.1085 2.78834C19.5623 2.82543 19.8231 2.89456 20.0206 2.9952C20.444 3.21091 20.7882 3.55512 21.0039 3.97848C21.1046 4.176 21.1737 4.43677 21.2108 4.89064C21.2486 5.35327 21.2491 5.94751 21.2491 6.79996L21.2491 7.34914C21.2491 8.36315 21.2443 8.74792 21.1594 9.10186C21.0798 9.43346 20.9485 9.75047 20.7703 10.0412C20.5801 10.3516 20.3114 10.6271 19.5945 11.3441L14.4696 16.4693C13.3363 17.6027 12.8931 18.032 12.443 18.255C11.5337 18.7056 10.4662 18.7057 9.55686 18.2551C9.1849 18.0708 8.81765 17.7457 8.06174 16.9987L9.53018 15.5303C9.82307 15.2374 9.82307 14.7625 9.53018 14.4696C9.23729 14.1767 8.76241 14.1767 8.46952 14.4696L7.00108 15.9381C6.25412 15.1821 5.92902 14.8149 5.7447 14.4429C5.29412 13.5337 5.29409 12.4662 5.74464 11.5569ZM16.0964 20.8436L14.4803 18.581L18.0395 15.0212L18.261 16.1277C18.4546 17.0946 18.5132 17.4263 18.4833 17.7328C18.4545 18.0272 18.368 18.3131 18.2286 18.574C18.0836 18.8456 17.8509 19.0891 17.1536 19.7864L16.0964 20.8436ZM13.7524 8.99947C13.7524 8.30912 14.3121 7.74947 15.0024 7.74947C15.6928 7.74947 16.2524 8.30912 16.2524 8.99947C16.2524 9.68983 15.6928 10.2495 15.0024 10.2495C14.3121 10.2495 13.7524 9.68983 13.7524 8.99947ZM15.0024 6.24947C13.4837 6.24947 12.2524 7.48069 12.2524 8.99947C12.2524 10.5183 13.4837 11.7495 15.0024 11.7495C16.5212 11.7495 17.7524 10.5183 17.7524 8.99947C17.7524 7.48069 16.5212 6.24947 15.0024 6.24947Z" fill="#2F80ED"/>
    </g>
    <g id="shield-tick">
        <path d="M10.49 2.23L5.5 4.11C4.35 4.54 3.41 5.9 3.41 7.12V14.55C3.41 15.73 4.19 17.28 5.14 17.99L9.44 21.2C10.85 22.26 13.17 22.26 14.58 21.2L18.88 17.99C19.83 17.28 20.61 15.73 20.61 14.55V7.12C20.61 5.89 19.67 4.53 18.52 4.1L13.53 2.23C12.68 1.92 11.32 1.92 10.49 2.23Z" stroke="#2F80ED" stroke-width="1.5" stroke-linecap="round" stroke-linejoin="round"/>
        <path d="M9.04999 11.87L10.66 13.48L14.96 9.17999" stroke="#2F80ED" stroke-width="1.5" stroke-linecap="round" stroke-linejoin="round"/>
    </g>
    <g id="user-check">
        <path id="Vector" d="M17 10L19 12L23 8" stroke="#2F80ED" stroke-width="1.5" stroke-linecap="round" stroke-linejoin="round"/>
        <circle id="Ellipse" cx="9" cy="6" r="4" stroke="#2F80ED" stroke-width="1.5" stroke-linecap="round" stroke-linejoin="round"/>
        <path id="Rec" d="M2 18.8C2 16.149 4.14903 14 6.8 14H11.2C13.851 14 16 16.149 16 18.8V18.8C16 20.5673 14.5673 22 12.8 22H5.2C3.43269 22 2 20.5673 2 18.8V18.8Z" stroke="#2F80ED" stroke-width="1.5" stroke-linecap="round" stroke-linejoin="round"/>
    </g>
</svg>
